<?xml version="1.0" encoding="UTF-8"?>
<svg id="Layer_2" data-name="Layer 2" xmlns="http://www.w3.org/2000/svg" viewBox="0 0 247.84 79.34">
  <defs>
    <style>
      .cls-1 {
        stroke-width: 0px;
      }
    </style>
  </defs>
  <g id="id_variations" data-name="id variations">
    <g>
      <path class="cls-1" d="m87.94,31.61c-1.52-.35-3.29-.14-5.07.89-2.27,1.32-3.09,3.03-3.44,4.39-.25,1.13-.29,2.47.18,3.84l11.97-6.96c-.2-.21-1.63-1.68-3.64-2.16Z"/>
      <path class="cls-1" d="m164.74,31.54c-1.52-.35-3.29-.14-5.07.89-2.27,1.32-3.09,3.03-3.44,4.39-.25,1.13-.29,2.47.18,3.84l11.97-6.96c-.2-.21-1.63-1.68-3.64-2.16Z"/>
      <path class="cls-1" d="m214.46,31.94c-1.52-.35-3.29-.14-5.07.89-2.27,1.32-3.09,3.03-3.44,4.39-.25,1.13-.29,2.47.18,3.84l11.97-6.96c-.2-.21-1.63-1.68-3.64-2.16Z"/>
      <path class="cls-1" d="m0,0v79.34h247.84V0H0Zm67.98,58.46h-10.22v-16.05c0-1.63,0-4.47-1.35-6.18-.85-1.06-2.2-1.7-3.69-1.7-1.7,0-3.12.78-3.98,1.92-1.35,1.7-1.56,4.19-1.56,6.25v15.76h-10.22v-16.47c0-2.13-.07-4.62-1.63-6.18-1.06-1.06-2.34-1.28-3.41-1.28-1.35,0-2.56.35-3.55,1.28-1.92,1.85-1.99,5.4-1.99,6.46v16.19h-10.22v-31.67h10.22v3.69c2.63-3.98,6.46-4.47,8.88-4.47,1.35,0,3.83.14,5.96,1.42,1.63.92,2.98,2.49,3.83,4.4.78-1.28,1.99-2.77,4.05-4.05,2.2-1.35,4.26-1.78,6.74-1.78,3.83,0,6.96,1.14,8.88,2.98,3.05,2.91,3.27,7.17,3.27,9.44v20.02Zm35.55-9.8c-1.71,3.13-4.41,5.27-7.48,7.06-4.11,2.39-8.16,3.76-13.21,2.43-3.79-1-7.61-3.62-10.25-8.16-2.28-3.93-3.23-8.8-2.11-13.23,1.39-5.24,5.14-8.25,8.21-10.03,3.07-1.78,7.81-3.8,13.25-2.21,5.25,1.54,8.36,5.48,10.33,8.86l.54.92-20.44,11.89c.86,1.47,2.55,3.12,4.37,3.7,2.21.69,4.19-.14,5.54-.92,1.29-.75,2.5-1.78,3.1-2.87.09-.13.74-1.42.58-3.38l8.85-4c1.02,4.58-.26,8.03-1.28,9.94Zm26.05-12.57c-1.35-.71-2.84-1.14-4.62-1.14-2.2,0-3.83.78-5.11,2.13-2.27,2.41-2.48,5.82-2.48,8.52v12.85h-10.22v-31.67h10.22v4.97c.92-1.77,2.34-3.41,3.98-4.4,1.7-1.06,3.48-1.35,5.47-1.35,1.28,0,2.2.14,3.34.5l-.57,9.58Zm13.92,22.36h-10.22v-22.9h10.22v22.9Zm-5.11-26.19c-3.34,0-5.96-2.63-5.96-5.96s2.63-5.96,5.96-5.96,5.96,2.63,5.96,5.96-2.63,5.96-5.96,5.96Zm41.94,16.32c-1.71,3.13-4.41,5.27-7.48,7.06-4.11,2.39-8.16,3.76-13.21,2.43-3.79-1-7.61-3.62-10.25-8.16-2.28-3.93-3.23-8.8-2.11-13.23,1.39-5.24,5.14-8.25,8.21-10.03,3.07-1.78,7.81-3.8,13.25-2.21,5.25,1.54,8.36,5.48,10.33,8.86l.54.92-20.44,11.89c.86,1.47,2.55,3.12,4.37,3.7,2.21.69,4.19-.14,5.54-.92,1.29-.75,2.5-1.78,3.1-2.87.09-.13.74-1.42.58-3.38l8.85-4c1.02,4.58-.26,8.03-1.28,9.94Zm13.48,9.87h-10.22V20.34h10.22v38.12Zm36.24-9.47c-1.71,3.13-4.41,5.27-7.48,7.06-4.11,2.39-8.16,3.76-13.21,2.43-3.79-1-7.61-3.62-10.25-8.16-2.28-3.93-3.23-8.8-2.11-13.23,1.39-5.24,5.14-8.25,8.21-10.03,3.07-1.78,7.81-3.8,13.25-2.21,5.25,1.54,8.36,5.48,10.33,8.86l.54.92-20.44,11.89c.86,1.47,2.55,3.12,4.37,3.7,2.21.69,4.19-.14,5.54-.92,1.29-.75,2.5-1.78,3.09-2.87.09-.13.74-1.42.58-3.38l8.85-4c1.02,4.58-.26,8.03-1.28,9.94Z"/>
    </g>
  </g>
</svg>